<?xml version="1.0" encoding="iso-8859-1"?>
<!-- Generator: Adobe Illustrator 19.0.0, SVG Export Plug-In . SVG Version: 6.00 Build 0)  -->
<svg version="1.1" id="Capa_1" xmlns="http://www.w3.org/2000/svg" xmlns:xlink="http://www.w3.org/1999/xlink" x="0px" y="0px"
	 viewBox="0 0 511.999 511.999" style="enable-background:new 0 0 511.999 511.999;" xml:space="preserve">
<g>
	<path style="fill:#24D883;" d="M389.519,227.711c-31.903,0-57.766-26.221-57.766-58.565c0-32.345,25.862-58.565,57.766-58.565
		c31.903,0,57.767,26.22,57.767,58.565C447.285,201.49,421.422,227.711,389.519,227.711L389.519,227.711z M491.567,161.305
		C491.567,105.908,447.272,61,392.631,61C361.158,61,333.12,75.901,315,99.121c-18.835-3.964-38.801-6.105-59.484-6.105
		c-21.179,0-41.609,2.237-60.841,6.387C176.561,76.021,148.422,61,116.821,61c-54.642,0-98.938,44.908-98.938,100.305
		c0,28.605,11.815,54.407,30.762,72.68C26.14,241.987,10,263.712,10,289.261c0,16.172,6.465,30.813,16.919,41.412
		s24.896,17.154,40.847,17.154c13.769,0,26.408-4.887,36.334-13.039c37.646,28.509,91.545,46.368,151.416,46.368
		c60.27,0,114.492-18.095,152.171-46.935c9.956,8.256,22.681,13.212,36.547,13.212c15.951,0,30.394-6.555,40.847-17.154
		C495.534,319.681,502,305.04,502,288.868c0-26.15-16.905-48.293-40.239-55.818C480.147,214.839,491.567,189.427,491.567,161.305
		L491.567,161.305z M122.48,112.286c31.902,0,57.766,26.221,57.766,58.565s-25.863,58.564-57.766,58.564
		c-31.904,0-57.767-26.22-57.767-58.564C64.714,138.507,90.576,112.286,122.48,112.286z"/>
	<g>
		<ellipse style="fill:#F0F0F0;" cx="122.48" cy="170.85" rx="57.766" ry="58.56"/>
		<ellipse style="fill:#F0F0F0;" cx="389.52" cy="169.15" rx="57.766" ry="58.56"/>
	</g>
	<path style="fill:#00AC65;" d="M444.233,347.434c-13.866,0-26.591-4.956-36.547-13.212c-37.679,28.84-91.901,46.935-152.171,46.935
		c-59.871,0-113.77-17.859-151.416-46.368c-9.926,8.151-22.565,13.039-36.334,13.039c-15.951,0-30.393-6.555-40.847-17.154
		C87.365,488.237,422.49,494.088,485.08,330.28C474.627,340.879,460.185,347.434,444.233,347.434z"/>
</g>
<path d="M511.999,288.869c0-24.932-13.108-47.287-33.749-59.342c15.122-19.361,23.317-43.118,23.317-68.222
	C501.567,100.483,452.698,51,392.631,51c-31.457,0-60.832,13.461-81.531,37.147c-18.078-3.406-36.747-5.131-55.584-5.131
	c-19.337,0-38.46,1.809-56.939,5.383C177.867,64.552,148.413,51,116.821,51C56.753,51,7.884,100.483,7.884,161.305
	c0,25.737,8.566,49.971,24.365,69.553C12.521,243.158,0,265.156,0,289.261c0,18.078,6.963,34.534,18.302,46.796
	c15.564,39.014,47.904,71.358,93.677,93.616c41.552,20.206,93.298,31.326,145.747,31.326c0.08,0,0.169,0,0.249,0
	c52.627-0.035,102.139-10.751,143.184-30.987c44.875-22.126,76.826-54.725,92.544-94.353
	C505.039,323.397,511.999,306.944,511.999,288.869z M51.995,243.406c3.263-1.16,5.693-3.925,6.425-7.309s-0.34-6.906-2.833-9.31
	c-17.864-17.23-27.703-40.485-27.703-65.482C27.884,111.51,67.781,71,116.821,71c27.455,0,52.95,12.585,69.948,34.527
	c2.357,3.043,6.257,4.463,10.015,3.651c18.945-4.089,38.706-6.162,58.731-6.162c19.534,0,38.854,1.982,57.425,5.891
	c3.737,0.787,7.594-0.623,9.943-3.634C339.881,83.492,365.303,71,392.631,71c49.04,0,88.937,40.511,88.937,90.305
	c0,24.539-9.533,47.496-26.845,64.641c-2.48,2.457-3.5,6.03-2.689,9.427s3.334,6.124,6.657,7.195
	C478.614,248.993,492,267.6,492,288.869c0,26.779-21.428,48.565-47.766,48.565c-11.127,0-21.558-3.773-30.163-10.909
	c-3.59-2.976-8.757-3.079-12.462-0.244c-37.26,28.519-90.508,44.875-146.093,44.875c-55.18,0-108.168-16.161-145.379-44.34
	c-1.788-1.354-3.914-2.028-6.036-2.028c-2.255,0-4.507,0.76-6.348,2.272c-8.576,7.043-18.946,10.767-29.987,10.767
	C41.428,337.827,20,316.041,20,289.261C20,268.639,32.858,250.211,51.995,243.406z M257.961,441c-0.075,0-0.148,0-0.224,0
	c-76.898,0-164.523-26.571-206.01-85.13c5.146,1.269,10.513,1.957,16.038,1.957c12.878,0,25.52-3.753,36.322-10.685
	c40.16,28.043,94.863,44.015,151.428,44.015c56.974,0,111.947-16.161,152.186-44.539c10.847,7.017,23.561,10.817,36.531,10.817
	c5.604,0,11.047-0.705,16.259-2.009C423.864,408.196,348.326,440.939,257.961,441z"/>
<path d="M207.217,142.561c0.616,0,1.241-0.058,1.87-0.176l0.156-0.03c5.422-1.054,8.934-6.298,7.879-11.719
	c-1.055-5.421-6.332-8.952-11.754-7.902c-5.426,1.027-8.993,6.258-7.966,11.685C198.31,139.216,202.505,142.561,207.217,142.561z"/>
<path d="M238.839,138.564c5.501-0.364,11.112-0.548,16.677-0.548c12.89,0,25.732,0.986,38.169,2.933
	c0.524,0.082,1.044,0.122,1.559,0.122c4.84,0,9.096-3.523,9.867-8.456c0.853-5.457-2.878-10.572-8.334-11.426
	c-13.457-2.105-27.34-3.173-41.261-3.173c-6.003,0-12.059,0.199-17.997,0.592c-5.511,0.365-9.683,5.127-9.318,10.638
	C228.565,134.757,233.335,138.939,238.839,138.564z"/>
<path d="M122.48,239.417c37.366,0,67.766-30.758,67.766-68.565s-30.399-68.565-67.766-68.565s-67.767,30.758-67.767,68.565
	C54.714,208.658,85.114,239.417,122.48,239.417z M122.48,122.286c26.338,0,47.766,21.786,47.766,48.565
	c0,2.383-0.178,4.725-0.505,7.017c-2.227-8.614-10.052-15.018-19.345-15.018c-11.017,0-20.001,8.985-20.001,20
	c0,11.017,8.984,20.001,20.001,20.001c3.766,0,7.28-1.069,10.294-2.891c-8.722,11.805-22.604,19.456-38.21,19.456
	c-26.339,0-47.767-21.786-47.767-48.565C74.714,144.073,96.142,122.286,122.48,122.286z"/>
<path d="M389.519,237.711c37.366,0,67.767-30.758,67.767-68.565s-30.4-68.565-67.767-68.565c-37.366,0-67.766,30.758-67.766,68.565
	C321.753,206.953,352.152,237.711,389.519,237.711z M389.519,120.58c26.339,0,47.767,21.786,47.767,48.565
	s-21.428,48.565-47.767,48.565c-14.262,0-27.075-6.396-35.835-16.506c2.432,1.055,5.107,1.647,7.919,1.647
	c11.016,0,20-8.984,20-20.001c0-11.015-8.984-20-20-20c-9.06,0-16.733,6.083-19.177,14.369c-0.435-2.628-0.673-5.323-0.673-8.074
	C341.753,142.366,363.181,120.58,389.519,120.58z"/>
<path d="M214.856,308.34c0,5.523,4.478,10,10,10c5.523,0,10-4.477,10-10v-10.105c0-5.523-4.477-10-10-10c-5.522,0-10,4.477-10,10
	V308.34z"/>
<path d="M287.143,288.235c-5.523,0-10,4.477-10,10v10.105c0,5.523,4.477,10,10,10c5.522,0,10-4.477,10-10v-10.105
	C297.143,292.712,292.665,288.235,287.143,288.235z"/>
<g>
</g>
<g>
</g>
<g>
</g>
<g>
</g>
<g>
</g>
<g>
</g>
<g>
</g>
<g>
</g>
<g>
</g>
<g>
</g>
<g>
</g>
<g>
</g>
<g>
</g>
<g>
</g>
<g>
</g>
</svg>
